<svg width="360" height="388" viewBox="0 0 360 388" fill="none" xmlns="http://www.w3.org/2000/svg">
<path d="M0 0H360V357C360 357 302.5 388 180 388C57.5 388 0 357 0 357V0Z" fill="#DFEFFF"/>
<path d="M367.205 131.631C263.346 136.102 306.897 53.9857 206.676 48.4121C106.455 42.8385 150.29 -98.9265 224.261 -65.0477C298.231 -31.1689 331.882 -67.65 352.609 -108.934C373.336 -150.218 439.928 -159.576 481.535 -108.729C523.142 -57.8817 548.866 -39.4597 637.174 -95.9789C725.483 -152.498 782.756 -113.043 800.126 -82.5898C817.497 -52.1367 825.482 8.84952 712.935 1.78917C600.388 -5.27118 633.724 89.8026 649.613 117.06C665.503 144.317 626.211 191.549 553.466 147.644C480.722 103.739 497.029 126.043 367.205 131.631Z" fill="url(#paint0_linear_90_2503)"/>
<path d="M402.115 151.087C376.816 153.423 360.601 149.21 348.953 141.628C337.289 134.035 330.139 123.026 323.033 111.6C322.701 111.066 322.369 110.532 322.037 109.996C315.272 99.097 308.356 87.9544 297.434 79.3749C285.955 70.358 270.093 64.1996 245.415 63.9907C220.958 63.7837 204.99 54.7072 195.887 41.7517C186.77 28.7778 184.483 11.8383 187.553 -4.17299C190.622 -20.1854 199.037 -35.2031 211.233 -44.3284C223.408 -53.4376 239.379 -56.7008 257.675 -49.1837C294.691 -33.9756 321.176 -35.864 340.754 -46.9509C360.302 -58.0211 372.851 -78.2022 382.144 -99.3342C400.529 -141.143 464.87 -153.683 507.548 -105.09C528.968 -80.7014 546.291 -64.0453 568.864 -61.198C591.431 -58.3513 619.084 -69.3215 661.135 -99.6327C703.093 -129.877 738.41 -135.802 765.476 -130.537C792.557 -125.27 811.446 -108.789 820.522 -94.1011C829.633 -79.3564 836.694 -57.023 827.874 -38.6413C819.076 -20.3043 794.323 -5.61408 739.13 -6.48078C711.446 -6.91548 692.893 -1.39536 680.929 7.61955C668.951 16.645 663.642 29.123 662.349 42.4468C661.057 55.7578 663.768 69.9298 667.836 82.4147C671.905 94.9025 677.343 105.739 681.541 112.392C689.714 125.346 684.918 143.929 668.928 154.327C652.967 164.706 625.787 166.921 589.354 146.771C571.075 136.662 558.136 131.124 547.024 128.709C535.893 126.29 526.626 127.012 515.709 129.362C510.41 130.503 504.722 132.027 498.238 133.764C478.038 139.175 450.107 146.657 402.115 151.087Z" stroke="white"/>
<circle cx="33" cy="252" r="2" fill="white"/>
<circle cx="33" cy="262" r="2" fill="white"/>
<circle cx="33" cy="272" r="2" fill="white"/>
<circle cx="33" cy="282" r="2" fill="white"/>
<circle cx="43" cy="252" r="2" fill="white"/>
<circle cx="43" cy="262" r="2" fill="white"/>
<circle cx="43" cy="272" r="2" fill="white"/>
<circle cx="43" cy="282" r="2" fill="white"/>
<circle cx="53" cy="252" r="2" fill="white"/>
<circle cx="53" cy="262" r="2" fill="white"/>
<circle cx="53" cy="272" r="2" fill="white"/>
<circle cx="53" cy="282" r="2" fill="white"/>
<defs>
<linearGradient id="paint0_linear_90_2503" x1="433.487" y1="-1.49022" x2="454.083" y2="173.621" gradientUnits="userSpaceOnUse">
<stop stop-color="white" stop-opacity="0.49"/>
<stop offset="1" stop-color="white" stop-opacity="0.37"/>
</linearGradient>
</defs>
</svg>
